<?xml version="1.0" encoding="utf-8"?>
<!-- Generator: Adobe Illustrator 22.0.0, SVG Export Plug-In . SVG Version: 6.00 Build 0)  -->
<svg version="1.1" id="Слой_1" xmlns="http://www.w3.org/2000/svg" xmlns:xlink="http://www.w3.org/1999/xlink" x="0px" y="0px"
	 viewBox="0 0 1243.9 1080" enable-background="new 0 0 1243.9 1080" xml:space="preserve">
<path fill="#FFFFFF" d="M860.5,40.7c-90,0-172.5,31.9-237.2,85.1c-64.6-53.2-147-85.1-236.8-85.1c-207.1,0-374.9,169.4-374.9,378.5
	c0,190,138.7,347.3,319.5,374.3l0,0c129.3,42,235.2,139.7,292.4,266.5C680.7,933.2,786.6,835.4,916,793.5
	c181-27.1,319.9-184.3,319.9-374.3C1235.8,210.1,1067.8,40.7,860.5,40.7z M682.6,669.2l-66.4-114.7l-263,151.3L588,295.5l66.4,114.7
	l263-151.3L682.6,669.2z"/>
</svg>
